<?xml version="1.0" standalone="no"?>
<!DOCTYPE svg PUBLIC "-//W3C//DTD SVG 20010904//EN"
 "http://www.w3.org/TR/2001/REC-SVG-20010904/DTD/svg10.dtd">
<svg version="1.0" xmlns="http://www.w3.org/2000/svg"
 width="168.000000pt" height="169.000000pt" viewBox="0 0 168.000000 169.000000"
 preserveAspectRatio="xMidYMid meet">

<g transform="translate(0.000000,169.000000) scale(0.100000,-0.100000)"
fill="#000000" stroke="none">
<path d="M462 1448 c-6 -6 -12 -17 -12 -24 0 -6 -20 -14 -46 -17 -54 -6 -110
-46 -136 -98 -16 -31 -18 -75 -18 -487 0 -362 3 -459 14 -485 16 -39 61 -82
99 -96 46 -18 919 -15 960 3 39 16 82 61 96 99 7 19 11 185 11 480 0 411 -2
455 -18 486 -25 51 -82 92 -134 98 -33 4 -47 11 -54 27 -13 30 -58 29 -62 -1
-3 -18 -10 -23 -35 -23 -24 0 -35 6 -42 23 -15 33 -53 35 -65 3 -13 -35 -61
-37 -75 -3 -15 33 -52 34 -67 3 -16 -36 -60 -36 -76 0 -15 31 -52 30 -67 -3
-14 -34 -62 -32 -75 3 -12 32 -50 30 -65 -3 -7 -17 -18 -23 -42 -23 -25 0 -32
5 -35 23 -3 25 -36 35 -56 15z m38 -143 c0 -113 -2 -135 -15 -135 -13 0 -15
22 -15 135 0 113 2 135 15 135 13 0 15 -22 15 -135z m145 -1 c0 -115 -2 -129
-17 -132 -16 -3 -18 8 -18 126 0 71 3 132 7 136 21 21 28 -9 28 -130z m140 0
c0 -115 -2 -129 -17 -132 -16 -3 -18 8 -18 126 0 71 3 132 7 136 21 21 28 -9
28 -130z m143 -3 c2 -123 1 -132 -15 -129 -16 3 -18 17 -21 123 -3 126 0 149
21 143 8 -3 13 -42 15 -137z m140 0 c2 -123 1 -132 -15 -129 -16 3 -18 17 -21
123 -3 126 0 149 21 143 8 -3 13 -42 15 -137z m142 4 c0 -113 -2 -135 -15
-135 -13 0 -15 22 -15 135 0 113 2 135 15 135 13 0 15 -22 15 -135z m-760 -34
c0 -28 -4 -53 -10 -56 -15 -9 -12 -52 6 -69 20 -20 68 -21 84 -1 8 9 10 27 5
47 -3 18 -9 54 -12 81 l-5 47 36 0 36 0 0 -49 c0 -28 -4 -53 -10 -56 -17 -10
-11 -51 9 -69 44 -40 111 5 90 61 -5 13 -9 44 -9 69 0 42 1 44 30 44 29 0 30
-2 30 -42 0 -23 -5 -56 -12 -74 -10 -29 -9 -36 7 -54 43 -47 123 -2 96 56 -6
14 -11 45 -11 69 0 43 1 45 30 45 29 0 30 -2 30 -45 0 -24 -5 -55 -11 -69 -27
-58 53 -103 96 -56 16 18 17 25 7 54 -7 18 -12 51 -12 74 0 40 1 42 30 42 29
0 30 -2 30 -44 0 -25 -4 -56 -9 -69 -21 -56 46 -101 90 -61 20 18 26 59 9 69
-5 3 -10 28 -10 56 l0 49 36 0 36 0 -5 -47 c-3 -27 -9 -63 -12 -81 -5 -20 -3
-38 5 -47 16 -20 64 -19 84 1 18 17 21 60 6 69 -5 3 -10 28 -10 56 0 43 3 49
21 49 25 0 60 -18 76 -39 9 -12 12 -127 13 -462 l0 -446 -26 -27 -27 -26 -447
0 -447 0 -27 26 -26 27 0 446 c1 335 4 450 13 462 17 22 48 38 75 39 20 0 22
-5 22 -49z"/>
<path d="M420 705 l0 -295 420 0 420 0 0 295 0 295 -420 0 -420 0 0 -295z
m528 215 c29 -18 72 -73 72 -92 0 -5 -24 -8 -53 -8 -41 0 -55 4 -65 20 -29 47
-116 7 -129 -60 l-6 -35 22 19 c13 12 41 21 74 24 42 3 58 0 86 -20 56 -38 75
-72 75 -131 0 -109 -74 -172 -193 -165 -82 4 -111 24 -148 97 -22 44 -27 67
-27 131 0 101 34 177 97 215 55 32 146 35 195 5z"/>
<path d="M797 690 c-34 -27 -37 -80 -7 -110 28 -28 81 -26 108 3 63 67 -29
164 -101 107z"/>
</g>
</svg>
