<?xml version="1.0" standalone="no"?>
<!DOCTYPE svg PUBLIC "-//W3C//DTD SVG 20010904//EN"
 "http://www.w3.org/TR/2001/REC-SVG-20010904/DTD/svg10.dtd">
<svg version="1.0" xmlns="http://www.w3.org/2000/svg"
 width="168.000000pt" height="169.000000pt" viewBox="0 0 168.000000 169.000000"
 preserveAspectRatio="xMidYMid meet">

<g transform="translate(0.000000,169.000000) scale(0.100000,-0.100000)"
fill="#000000" stroke="none">
<path d="M297 1246 c-26 -7 -59 -24 -72 -36 l-25 -23 0 -249 0 -249 24 -24
c28 -28 80 -43 161 -47 54 -3 60 -1 63 18 3 19 -3 22 -67 27 -76 6 -131 29
-131 53 0 11 5 14 17 10 29 -11 163 -27 173 -21 6 3 10 14 10 24 0 15 -12 19
-66 25 -80 8 -134 29 -134 52 0 12 5 15 23 9 12 -3 57 -9 100 -12 l77 -6 0 27
c0 25 -2 26 -62 27 -80 1 -132 19 -136 47 -3 20 -2 20 44 6 76 -23 173 -18
236 11 29 14 61 25 71 25 15 0 17 12 17 121 0 66 -4 128 -10 138 -25 48 -212
76 -313 47z m246 -56 c41 -20 33 -37 -25 -55 -88 -26 -230 -14 -259 21 -15 18
-10 22 38 40 47 17 205 14 246 -6z m-195 -112 c59 -10 136 -4 210 18 35 10 28
-22 -10 -43 -44 -23 -219 -25 -263 -3 -34 17 -50 58 -19 46 11 -4 47 -13 82
-18z m62 -98 c52 0 96 8 148 24 35 12 28 -20 -10 -41 -25 -14 -56 -18 -133
-18 -108 0 -165 15 -165 45 0 16 4 16 52 4 29 -8 77 -14 108 -14z"/>
<path d="M695 1225 c-24 -23 -25 -30 -25 -150 l0 -125 30 0 30 0 0 75 c0 69 2
75 20 75 12 0 32 11 45 25 14 13 25 33 25 45 0 20 5 20 253 20 l253 0 9 -32
c8 -25 18 -35 43 -43 l32 -9 0 -101 0 -100 -33 -15 c-22 -10 -35 -26 -42 -47
l-9 -33 -184 0 -183 0 3 -27 3 -28 233 0 c234 0 234 0 253 24 17 21 19 41 19
225 0 199 0 203 -23 224 -23 22 -28 22 -376 22 l-352 0 -24 -25z"/>
<path d="M1005 1140 c-11 -4 -33 -22 -49 -39 -24 -25 -30 -42 -34 -88 -3 -48
0 -64 20 -93 46 -68 128 -88 199 -48 41 23 79 85 79 129 -1 42 -37 108 -72
129 -34 21 -105 26 -143 10z m110 -70 c-3 -5 -24 -15 -45 -21 -22 -7 -40 -18
-40 -24 0 -7 -7 -28 -15 -46 l-14 -34 -1 68 0 67 61 0 c36 0 58 -4 54 -10z m5
-45 c0 -3 -11 -10 -25 -15 -14 -5 -32 -25 -40 -42 l-14 -33 -1 48 0 47 40 0
c22 0 40 -2 40 -5z"/>
<path d="M828 1029 c-31 -18 -17 -79 18 -79 17 0 44 28 44 45 0 14 -27 45 -38
45 -4 0 -15 -5 -24 -11z"/>
<path d="M1268 1029 c-31 -18 -17 -79 18 -79 17 0 44 28 44 45 0 14 -27 45
-38 45 -4 0 -15 -5 -24 -11z"/>
<path d="M615 895 c-5 -2 -22 -6 -37 -9 -14 -3 -40 -18 -57 -32 l-31 -26 0
-152 c0 -170 4 -184 68 -213 27 -12 67 -17 142 -17 122 -1 192 22 210 69 6 15
10 88 10 164 0 163 -8 181 -92 206 -45 13 -184 20 -213 10z m209 -59 c50 -21
53 -34 9 -53 -76 -34 -293 -15 -293 25 0 36 214 57 284 28z m-181 -116 c53 -8
133 -2 200 15 43 11 35 -22 -10 -43 -52 -22 -204 -22 -255 0 -42 19 -55 55
-15 44 12 -4 48 -11 80 -16z m-3 -92 c60 -10 165 -1 214 18 31 12 17 -25 -16
-43 -25 -13 -57 -18 -133 -18 -76 0 -108 5 -132 18 -35 18 -48 55 -15 42 9 -4
46 -11 82 -17z m-20 -89 c53 -13 130 -11 190 5 60 16 70 14 54 -12 -26 -41
-218 -55 -289 -21 -38 18 -49 55 -13 43 12 -4 39 -11 58 -15z"/>
</g>
</svg>
