<?xml version="1.0" standalone="no"?>
<!DOCTYPE svg PUBLIC "-//W3C//DTD SVG 20010904//EN"
 "http://www.w3.org/TR/2001/REC-SVG-20010904/DTD/svg10.dtd">
<svg version="1.0" xmlns="http://www.w3.org/2000/svg"
 width="168.000000pt" height="169.000000pt" viewBox="0 0 168.000000 169.000000"
 preserveAspectRatio="xMidYMid meet">

<g transform="translate(0.000000,169.000000) scale(0.100000,-0.100000)"
fill="#000000" stroke="none">
<path d="M1179 1347 c-53 -19 -118 -46 -145 -62 -67 -39 -177 -147 -255 -250
-64 -86 -64 -86 -99 -78 -19 4 -67 8 -105 8 -63 0 -76 -4 -123 -34 -61 -39
-59 -42 39 -66 36 -9 80 -25 98 -36 26 -16 30 -22 22 -38 -12 -22 -5 -30 50
-55 23 -11 47 -36 70 -71 35 -56 43 -63 54 -45 4 6 11 7 17 4 15 -10 53 -101
68 -163 l13 -55 23 30 c42 51 57 107 51 181 -3 38 -9 77 -12 88 -5 16 6 29 57
65 35 24 104 84 155 133 103 100 156 187 192 317 47 169 17 191 -170 127z m26
-120 c38 -33 45 -95 14 -131 -31 -35 -89 -45 -124 -22 -56 37 -57 123 -2 156
42 26 80 25 112 -3z"/>
<path d="M533 700 c-105 -53 -185 -164 -218 -302 -22 -93 -22 -91 30 -83 112
16 224 73 290 147 33 36 89 137 81 145 -2 2 -33 -5 -69 -14 -36 -10 -69 -14
-74 -10 -4 5 0 38 10 74 9 36 16 68 14 70 -2 1 -31 -11 -64 -27z"/>
</g>
</svg>
