<?xml version="1.0" encoding="utf-8"?>
<!-- Generator: Adobe Illustrator 19.0.0, SVG Export Plug-In . SVG Version: 6.00 Build 0)  -->
<svg version="1.1" id="Layer_1" xmlns="http://www.w3.org/2000/svg" xmlns:xlink="http://www.w3.org/1999/xlink" x="0px" y="0px"
	 viewBox="0 0 560 560" style="enable-background:new 0 0 560 560;" xml:space="preserve">
<style type="text/css">
	.st0{fill-rule:evenodd;clip-rule:evenodd;fill:#4D4D4D;}
</style>
<g id="XMLID_5_">
	<path id="XMLID_132_" class="st0" d="M453.7,410.3l-57.3-4l-29.3-29c5.9-4.5,9.6-11.5,9.6-19.2c0-6.1-2.4-11.7-6.1-16
		c3.7-4.3,6.1-9.9,6.1-16c0-6.9-2.7-12.8-7.2-17.3C399.4,283,417,245.4,417,205.7c0-75.1-61.3-136.1-136.4-136.1
		s-136.1,61-136.1,136.1c0,39.7,17.6,77.2,47.4,103.1c-4.5,4.5-7.5,10.4-7.5,17.3c0,6.1,2.7,11.7,6.4,16c-4,4.3-6.4,9.9-6.4,16
		c0,8.3,4.3,15.7,10.7,20l-22.6,28.2l-64.5,4.3c-38.1,2.1-67.7,33.8-67.7,71.9v36h16v-36c0-29.6,23.2-54.1,52.7-55.9l64.7-4.3
		l53.5,46.1c1.6,1.3,3.5,1.9,5.3,1.9c2.1,0,4-0.8,5.6-2.4l9.1-9.1l8,11.7l-21.6,35.7c-0.8,1.3-1.1,2.7-1.1,4.3v8h16v-5.9l22.9-38.1
		c1.6-2.7,1.6-6.1-0.3-8.5L259,447.3l21.6-21.8l21.8,21.8L290.2,466c-1.9,2.4-1.9,5.9-0.3,8.5l22.9,38.1v5.9h16v-8
		c0-1.6-0.5-2.9-1.1-4.3l-21.6-35.7l7.7-11.7l9.3,9.1c1.6,1.6,3.5,2.4,5.6,2.4c1.6,0,3.5-0.5,4.8-1.6l61.8-46.3l57.3,4
		c29.3,1.9,52.5,26.4,52.5,55.9v36.2h16v-36.2C521.1,444.4,491.5,412.7,453.7,410.3L453.7,410.3z M160.4,205.7
		c0-66.1,54.1-120.1,120.1-120.1c66.3,0,120.4,54.1,120.4,120.1c0,37.8-18.1,73.5-48.2,96.2h-40v-52.2l28-23.4
		c12.8-10.7,20-26.1,20-42.6c0-22.6-18.4-41.8-40-41.8c-7.2,0-13.9,1.9-20,5.6c-12.5-7.2-27.7-7.2-40.2,0c-6.1-3.7-12.8-5.6-20-5.6
		c-21.6,0-40,19.2-40,41.8c0,16.5,7.2,32,20,42.6l28,23.4v52.2h-40C178.5,279.2,160.4,243.5,160.4,205.7L160.4,205.7z M352.8,334.1
		H208.6c-4.5,0-8-3.7-8-8c0-4.5,3.5-8,8-8h144.1l0,0c4.5,0,8,3.5,8,8C360.7,330.4,357.3,334.1,352.8,334.1L352.8,334.1z
		 M360.7,358.1c0,4.5-3.5,8-8,8H208.6c-4.5,0-8-3.5-8-8c0-4.5,3.5-8,8-8h144.1C357.3,350.1,360.7,353.5,360.7,358.1L360.7,358.1z
		 M255.5,212.9c1.6,1.1,3.5,1.9,5.1,1.9c1.9,0,3.7-0.8,5.1-1.9c9.6-7.7,14.9-19.2,14.9-31.2c0-1.9,0-3.7-0.3-5.3
		c0-0.5-0.3-1.1-0.3-1.6c-0.3-1.3-0.5-2.7-1.1-4.3c0-0.3-0.3-0.8-0.3-1.3c-0.5-1.6-1.3-3.2-2.1-4.8c0-0.3-0.3-0.5-0.5-0.8
		c-0.5-1.3-1.3-2.7-2.1-4c-0.3-0.3-0.3-0.5-0.5-0.8c4.8-1.3,9.9-1.3,14.7,0c-0.3,0.3-0.3,0.5-0.5,0.8c-0.8,1.3-1.6,2.7-2.4,4
		c0,0.3-0.3,0.5-0.3,0.8c-0.8,1.6-1.6,3.2-2.1,4.8c0,0.5-0.3,1.1-0.3,1.3c-0.5,1.3-0.8,2.9-1.1,4.3c0,0.5-0.3,1.1-0.3,1.6
		c-0.3,1.6-0.5,3.5-0.5,5.3c0,12,5.6,23.4,15.2,31.2c1.3,1.1,3.2,1.9,5.1,1.9c1.6,0,3.5-0.8,5.1-1.9c9.3-7.7,14.9-19.2,14.9-31.2
		c0-1.9-0.3-3.7-0.5-5.3c0-0.5,0-1.1-0.3-1.6c-0.3-1.3-0.5-2.7-0.8-4c-0.3-0.5-0.3-1.1-0.5-1.6c-0.5-1.6-1.1-3.2-1.9-4.8
		c-0.3-0.3-0.5-0.5-0.5-1.1c-0.8-1.3-1.6-2.4-2.4-3.7c0-0.3-0.3-0.5-0.3-0.8c2.1-0.8,4.5-1.1,7.2-1.1c12.8,0,24,12,24,25.8
		c0,11.7-5.1,22.9-14.1,30.4l-31.2,25.8c-1.6,1.6-2.7,3.7-2.7,6.1v55.9h-32.2v-55.9c0-2.4-1.1-4.5-2.9-6.1L230.8,214
		c-9.1-7.5-14.1-18.6-14.1-30.4c0-13.9,11.2-25.8,24-25.8c2.4,0,5.1,0.3,7.2,1.1c0,0.3-0.3,0.5-0.3,0.8c-0.8,1.3-1.6,2.4-2.4,3.7
		c0,0.5-0.3,0.8-0.5,1.1c-0.8,1.6-1.3,3.2-1.9,4.8c-0.3,0.5-0.3,1.1-0.5,1.6c-0.3,1.3-0.5,2.7-0.8,4c-0.3,0.5-0.3,1.1-0.3,1.6
		c-0.3,1.6-0.5,3.5-0.5,5.3C240.6,193.7,246.2,205.2,255.5,212.9L255.5,212.9z M256.6,181.7c0-1.6,0.3-3.2,0.5-4.5
		c0.3-0.5,0.3-0.8,0.3-1.3c0.5-1.3,0.8-2.9,1.6-4.3l0.3-0.3c0.3-0.8,0.8-1.6,1.3-2.4c0.5,0.8,1.1,1.6,1.6,2.4v0.3
		c0.8,1.3,1.3,2.9,1.6,4.3c0.3,0.5,0.3,0.8,0.3,1.3c0.3,1.3,0.5,2.9,0.5,4.5s-0.3,3.2-0.5,4.8c0,0.3,0,0.8-0.3,1.1
		c-0.3,1.6-0.8,2.9-1.6,4.3c0,0.3,0,0.3,0,0.5c-0.5,0.8-1.1,1.6-1.6,2.1c-0.5-0.5-1.1-1.3-1.3-2.1c-0.3-0.3-0.3-0.3-0.3-0.5
		c-0.8-1.3-1.1-2.7-1.6-4.3c0-0.3-0.3-0.8-0.3-1.1C256.9,184.9,256.6,183.3,256.6,181.7L256.6,181.7z M296.8,181.7
		c0-1.6,0-3.2,0.5-4.5c0-0.5,0-0.8,0.3-1.3c0.3-1.3,0.8-2.9,1.3-4.3c0.3,0,0.3-0.3,0.3-0.3c0.5-0.8,1.1-1.6,1.6-2.4
		c0.5,0.8,1.1,1.6,1.3,2.4l0.3,0.3c0.5,1.3,1.1,2.9,1.6,4.3c0,0.5,0,0.8,0.3,1.3c0.3,1.3,0.5,2.9,0.5,4.5s-0.3,3.2-0.5,4.8
		c-0.3,0.3-0.3,0.8-0.3,1.1c-0.5,1.6-1.1,2.9-1.6,4.3c0,0.3-0.3,0.3-0.3,0.5c-0.3,0.8-0.8,1.6-1.3,2.1c-0.5-0.5-1.1-1.3-1.6-2.1
		c0-0.3,0-0.3-0.3-0.5c-0.5-1.3-1.1-2.7-1.3-4.3c-0.3-0.3-0.3-0.8-0.3-1.1C296.8,184.9,296.8,183.3,296.8,181.7L296.8,181.7z
		 M232.1,451.3l-44.5-38.1l22.9-28.8l57,31.7L232.1,451.3z M239.5,382.1h82.3L280.6,405L239.5,382.1z M329.6,451.6l-11.2-10.9
		l-24.5-24.5l57.5-32l29.3,29L329.6,451.6z"/>
	<polygon id="XMLID_131_" class="st0" points="414.6,115.4 430.5,99.4 419.3,88 403.1,104 	"/>
	<polygon id="XMLID_130_" class="st0" points="419.3,323.7 430.5,312.3 414.6,296.3 403.4,307.7 	"/>
	<rect id="XMLID_129_" x="440.9" y="197.7" class="st0" width="16" height="16.2"/>
	<polygon id="XMLID_128_" class="st0" points="146.8,115.4 158,104 142.1,88 130.9,99.4 	"/>
	<polygon id="XMLID_127_" class="st0" points="142.1,323.7 158,307.7 146.8,296.3 130.9,312.3 	"/>
	<rect id="XMLID_126_" x="104.5" y="197.7" class="st0" width="16" height="16.2"/>
	<rect id="XMLID_125_" x="272.6" y="37.6" class="st0" width="16.2" height="16"/>
</g>
</svg>
