<?xml version="1.0" standalone="no"?>
<!DOCTYPE svg PUBLIC "-//W3C//DTD SVG 20010904//EN"
 "http://www.w3.org/TR/2001/REC-SVG-20010904/DTD/svg10.dtd">
<svg version="1.0" xmlns="http://www.w3.org/2000/svg"
 width="168.000000pt" height="169.000000pt" viewBox="0 0 168.000000 169.000000"
 preserveAspectRatio="xMidYMid meet">

<g transform="translate(0.000000,169.000000) scale(0.100000,-0.100000)"
fill="#000000" stroke="none">
<path d="M1177 1294 c-4 -4 -7 -56 -7 -116 l0 -108 -117 0 -118 0 -52 -42
c-32 -26 -60 -60 -74 -89 -19 -41 -29 -51 -73 -69 -49 -19 -54 -20 -95 -5 -26
9 -78 15 -128 15 -76 0 -86 -2 -108 -25 -24 -23 -25 -31 -25 -135 l0 -110 30
0 30 0 0 -100 0 -100 -30 0 c-20 0 -30 -5 -30 -15 0 -12 20 -15 119 -15 l120
0 3 48 3 47 118 3 117 3 0 44 0 44 98 3 97 3 3 48 3 47 110 0 c90 0 109 3 109
15 0 8 -7 15 -15 15 -12 0 -15 15 -15 79 0 104 -19 131 -91 131 l-49 0 0 35 0
35 54 0 c83 0 101 19 101 112 l0 73 -32 3 c-52 5 -44 35 14 53 25 8 48 20 51
27 6 19 -105 61 -121 46z m53 -208 c0 -31 -5 -58 -13 -64 -7 -6 -42 -12 -77
-14 l-65 -3 0 -60 0 -60 63 -5 c40 -3 66 -10 72 -20 5 -8 10 -48 10 -87 0 -71
-1 -73 -25 -73 -24 0 -25 2 -25 65 l0 65 -69 0 c-54 0 -70 -4 -75 -16 -3 -9
-6 -58 -6 -110 0 -87 -1 -94 -20 -94 -19 0 -20 7 -20 190 0 178 -1 190 -18
190 -20 0 -88 -60 -114 -100 -25 -40 -31 -16 -8 32 25 48 96 117 122 118 11 0
25 -15 35 -37 24 -50 37 -51 56 -3 l15 40 66 0 66 0 0 50 c0 38 4 50 15 50 11
0 15 -13 15 -54z m-290 -310 l0 -165 -52 -3 -53 -3 -3 -47 -3 -48 -40 0 -39 0
0 80 c0 73 -3 83 -25 105 -18 19 -35 25 -70 25 -39 0 -45 3 -45 21 0 20 4 21
50 15 44 -6 57 -3 117 28 44 22 74 45 86 65 19 32 66 91 73 91 2 0 4 -74 4
-164z m-140 71 c0 -8 -22 -24 -48 -36 -38 -18 -62 -22 -113 -19 l-64 3 0 -50
0 -50 56 -5 c80 -7 89 -18 89 -106 0 -72 -1 -74 -25 -74 -23 0 -24 4 -27 63
l-3 62 -64 3 c-45 2 -67 -1 -72 -10 -5 -7 -9 -59 -9 -115 0 -96 -1 -103 -20
-103 -19 0 -20 7 -20 185 0 178 -1 185 -20 185 -18 0 -20 -7 -20 -70 0 -56 -3
-70 -15 -70 -12 0 -15 16 -15 85 0 97 16 125 70 125 l30 0 0 -60 c0 -47 3 -60
15 -60 12 0 15 13 15 60 0 70 5 72 97 43 51 -16 55 -16 101 4 58 26 62 26 62
10z m340 -97 l0 -50 -40 0 -40 0 0 50 0 50 40 0 40 0 0 -50z m-502 -192 c3
-42 1 -47 -20 -50 -20 -3 -23 -10 -26 -50 -2 -34 -7 -48 -18 -48 -11 0 -14 20
-14 101 l0 100 38 -3 c37 -3 37 -4 40 -50z"/>
<path d="M945 1256 c-13 -13 -27 -36 -31 -50 -14 -56 38 -116 99 -116 30 0 75
35 88 68 12 32 -5 87 -34 107 -34 24 -94 19 -122 -9z m107 -23 c24 -21 23 -68
-2 -93 -32 -32 -49 -26 -30 11 9 15 7 19 -6 19 -9 0 -22 -7 -29 -17 -17 -23
-35 -8 -35 29 0 59 60 89 102 51z"/>
<path d="M640 1205 c0 -8 7 -15 15 -15 8 0 15 7 15 15 0 8 -7 15 -15 15 -8 0
-15 -7 -15 -15z"/>
<path d="M700 1205 c0 -8 9 -15 20 -15 11 0 20 7 20 15 0 8 -9 15 -20 15 -11
0 -20 -7 -20 -15z"/>
<path d="M770 1205 c0 -8 7 -15 15 -15 8 0 15 7 15 15 0 8 -7 15 -15 15 -8 0
-15 -7 -15 -15z"/>
<path d="M459 1075 c-84 -45 -47 -175 50 -175 47 0 77 21 91 64 27 83 -62 154
-141 111z m91 -35 c21 -21 27 -74 9 -85 -5 -4 -18 0 -28 9 -17 16 -41 22 -41
10 0 -3 5 -14 10 -25 14 -24 -6 -26 -32 -2 -26 23 -24 78 4 97 30 21 54 20 78
-4z"/>
</g>
</svg>
