<?xml version="1.0" standalone="no"?>
<!DOCTYPE svg PUBLIC "-//W3C//DTD SVG 20010904//EN"
 "http://www.w3.org/TR/2001/REC-SVG-20010904/DTD/svg10.dtd">
<svg version="1.0" xmlns="http://www.w3.org/2000/svg"
 width="102.000000pt" height="101.000000pt" viewBox="0 0 102.000000 101.000000"
 preserveAspectRatio="xMidYMid meet">

<g transform="translate(0.000000,101.000000) scale(0.100000,-0.100000)"
fill="#000000" stroke="none">
<path d="M435 855 c-27 -8 -82 -30 -123 -50 -77 -38 -246 -148 -258 -167 -4
-6 7 -23 25 -37 29 -24 31 -31 31 -87 0 -57 -3 -65 -40 -110 l-40 -49 2 -110
3 -110 100 0 100 0 3 106 3 106 -46 58 c-36 47 -45 66 -45 98 0 44 3 44 69 2
l41 -25 0 -119 0 -119 68 -24 c158 -59 223 -60 386 -8 l96 31 0 124 0 124 89
61 c49 33 93 65 97 72 9 15 -29 47 -140 116 -181 114 -309 149 -421 117z m186
-44 c30 -10 79 -31 109 -46 73 -37 210 -125 210 -135 0 -13 -157 -110 -248
-153 -136 -63 -213 -61 -357 11 -57 28 -225 134 -225 142 0 3 39 30 88 61 206
133 305 161 423 120z m142 -542 c-17 -16 -161 -52 -223 -56 -52 -3 -83 2 -150
25 l-85 28 -3 97 -3 96 55 -24 c74 -33 162 -49 216 -41 25 4 79 21 120 39 l75
32 3 -94 c1 -52 -1 -98 -5 -102z m-594 106 c29 -34 31 -40 31 -120 l0 -85 -65
0 -65 0 0 86 c0 78 2 88 28 120 15 18 30 34 33 34 4 0 21 -16 38 -35z"/>
<path d="M411 638 l0 -103 20 45 c11 25 23 57 26 73 3 15 11 27 17 27 6 1 38
14 71 30 l60 28 -97 1 -98 1 1 -102z"/>
<path d="M481 608 l0 -63 18 40 c14 31 28 44 67 62 l49 22 -67 0 -68 1 1 -62z"/>
</g>
</svg>
