<?xml version="1.0" standalone="no"?>
<!DOCTYPE svg PUBLIC "-//W3C//DTD SVG 20010904//EN"
 "http://www.w3.org/TR/2001/REC-SVG-20010904/DTD/svg10.dtd">
<svg version="1.0" xmlns="http://www.w3.org/2000/svg"
 width="168.000000pt" height="169.000000pt" viewBox="0 0 168.000000 169.000000"
 preserveAspectRatio="xMidYMid meet">

<g transform="translate(0.000000,169.000000) scale(0.100000,-0.100000)"
fill="#000000" stroke="none">
<path d="M721 1284 c-79 -21 -145 -60 -202 -121 -114 -120 -155 -298 -103
-445 8 -22 14 -43 14 -45 0 -7 -82 8 -103 19 -21 11 -22 31 -2 48 9 7 15 29
15 52 l0 39 -24 -18 c-35 -26 -66 -76 -66 -105 0 -33 47 -74 98 -85 125 -27
404 11 637 87 337 110 506 249 405 334 -28 23 -95 45 -106 33 -11 -11 20 -54
47 -64 40 -15 37 -34 -13 -79 l-42 -37 -13 57 c-27 120 -121 244 -224 297 -94
47 -217 60 -318 33z m143 -113 c23 -79 22 -81 -29 -81 -31 0 -45 4 -45 13 0
15 29 117 37 130 9 14 20 -5 37 -62z m-124 -25 c-11 -55 -12 -56 -46 -56 l-35
0 15 29 c19 36 67 93 73 87 3 -2 0 -30 -7 -60z m249 -16 l22 -40 -35 0 c-33 0
-35 2 -45 50 -6 28 -11 56 -11 62 0 18 44 -28 69 -72z m-368 10 c-24 -45 -29
-50 -61 -49 l-35 0 54 49 c30 28 58 50 62 50 4 0 -5 -22 -20 -50z m470 0 l54
-49 -35 0 c-32 -1 -37 4 -61 49 -15 28 -24 50 -20 50 4 0 32 -22 62 -50z
m-526 -177 c-4 -38 -9 -71 -12 -75 -2 -5 -27 -8 -54 -8 l-50 0 7 38 c4 20 13
54 21 75 14 34 18 37 55 37 l40 0 -7 -67z m155 30 c0 -21 -3 -55 -6 -75 -6
-37 -8 -38 -50 -38 -23 0 -45 4 -48 9 -6 9 12 119 21 134 2 4 22 7 44 7 38 0
39 0 39 -37z m174 0 c3 -21 6 -55 6 -75 l0 -38 -65 0 -65 0 0 38 c0 20 3 54 6
75 l7 37 52 0 52 0 7 -37z m147 4 c4 -15 9 -46 11 -70 l3 -42 -46 -3 -46 -3
-7 38 c-3 21 -6 55 -6 76 l0 38 42 -3 c36 -3 43 -7 49 -31z m153 -9 c9 -24 17
-56 18 -73 3 -29 2 -30 -45 -33 -54 -4 -53 -5 -62 86 l-6 62 40 0 c37 0 40 -2
55 -42z m-639 -170 c2 -7 6 -41 10 -75 l6 -63 -40 0 c-37 0 -40 2 -54 43 -21
57 -28 93 -20 101 12 11 93 6 98 -6z m159 -25 c14 -88 6 -103 -54 -103 -26 0
-28 3 -39 61 -6 34 -8 66 -5 70 3 5 25 9 48 9 42 0 44 -1 50 -37z m184 -9 l3
-41 -60 -15 c-52 -14 -61 -14 -65 -1 -8 21 -7 88 1 97 4 4 32 6 63 4 l55 -3 3
-41z m157 26 c0 -14 -83 -52 -96 -44 -3 2 -4 17 -1 34 4 30 6 31 51 28 32 -2
46 -7 46 -18z"/>
<path d="M1218 747 c-14 -13 -29 -34 -33 -46 -6 -20 -12 -22 -53 -18 -34 3
-74 -4 -149 -26 l-101 -31 -6 -38 c-8 -50 -36 -119 -46 -113 -4 2 -15 32 -24
65 -15 53 -20 61 -39 58 -20 -3 -22 -8 -20 -53 l2 -50 -37 43 c-35 39 -68 53
-85 35 -4 -3 0 -17 8 -30 20 -30 12 -29 -30 3 -27 20 -41 24 -66 19 l-31 -7
29 -30 c39 -41 119 -85 188 -103 201 -52 411 44 500 229 44 92 51 116 32 116
-8 0 -25 -11 -39 -23z m-229 -167 c-25 -44 -69 -90 -69 -72 0 6 5 34 11 62 10
48 12 50 45 50 l35 0 -22 -40z m102 -10 c-30 -28 -58 -50 -62 -50 -4 0 5 22
20 50 24 45 29 50 61 49 l35 0 -54 -49z"/>
</g>
</svg>
