<?xml version="1.0" standalone="no"?>
<!DOCTYPE svg PUBLIC "-//W3C//DTD SVG 20010904//EN"
 "http://www.w3.org/TR/2001/REC-SVG-20010904/DTD/svg10.dtd">
<svg version="1.0" xmlns="http://www.w3.org/2000/svg"
 width="168.000000pt" height="169.000000pt" viewBox="0 0 168.000000 169.000000"
 preserveAspectRatio="xMidYMid meet">

<g transform="translate(0.000000,169.000000) scale(0.100000,-0.100000)"
fill="#000000" stroke="none">
<path d="M1073 1410 c-40 -24 -54 -80 -30 -121 17 -31 24 -17 -106 -225 l-57
-91 -49 11 c-46 9 -52 8 -92 -19 l-43 -28 -46 27 c-25 14 -75 43 -111 64 -64
35 -67 39 -72 80 -6 52 -29 80 -74 88 -42 8 -74 -7 -97 -47 -50 -84 42 -171
132 -125 26 13 33 10 139 -53 l113 -66 0 -48 c0 -28 7 -61 17 -78 16 -27 16
-29 -3 -51 -174 -199 -186 -210 -221 -203 -77 14 -138 -69 -101 -138 18 -34
40 -46 81 -47 69 0 118 73 87 130 -9 16 2 33 67 107 43 49 89 102 103 119 24
29 29 30 95 28 l70 -3 87 -138 c85 -135 98 -165 78 -178 -18 -11 -11 -81 10
-108 37 -47 125 -45 151 4 6 13 12 41 12 63 0 52 -37 86 -92 86 l-37 0 -93
150 -92 149 23 33 c13 18 24 34 24 36 1 2 61 -2 133 -9 117 -11 133 -14 143
-33 24 -48 50 -66 94 -66 35 0 47 5 68 31 14 17 26 42 26 55 0 62 -60 114
-115 100 -26 -7 -59 -34 -66 -55 -3 -9 -33 -9 -124 -1 -66 6 -129 15 -140 20
-11 4 -28 28 -38 52 l-18 45 43 65 c24 36 63 100 88 142 41 69 48 75 77 76 65
0 103 36 103 96 0 36 -16 61 -50 79 -38 20 -58 19 -97 -5z"/>
</g>
</svg>
