<?xml version="1.0" encoding="utf-8"?>
<!-- Generator: Adobe Illustrator 19.0.0, SVG Export Plug-In . SVG Version: 6.00 Build 0)  -->
<svg version="1.1" id="Layer_1" xmlns="http://www.w3.org/2000/svg" xmlns:xlink="http://www.w3.org/1999/xlink" x="0px" y="0px"
	 viewBox="0 0 560.9 560" style="enable-background:new 0 0 560.9 560;" xml:space="preserve">
<style type="text/css">
	.st0{fill:#FFFFFF;}
</style>
<g id="XMLID_17_">
	<path id="XMLID_36_" class="st0" d="M496.8,442.5c-0.6,0-1.2,0.1-1.8,0.1l-14.9-67c11.2-3.4,21.6-8.7,30.9-15.7
		c0.4-0.2,0.8-0.5,1.2-0.8c43.1-33.2,51.1-95.1,17.8-138.2c-33.2-43.1-95.1-51.1-138.2-17.8c-1,0.8-2,1.5-2.9,2.4l-31.5-31.5
		c34.9-41.8,29.2-104-12.6-138.9c-41.8-34.9-104-29.2-138.9,12.6c-30.5,36.6-30.5,89.7,0,126.3l-31.5,31.5
		c-41.6-35.1-103.7-29.8-138.8,11.8C0.4,258.9,5.7,321,47.3,356.1c1.2,1,2.5,2,3.7,3c0.4,0.3,0.7,0.6,1.1,0.8
		c9.3,7,19.8,12.4,30.9,15.7l-14.8,67c-0.6,0-1.2-0.1-1.8-0.1c-29.8-0.1-54,24-54.1,53.8c-0.1,29.8,24,54,53.8,54.1
		c29.8,0.1,54-24,54.1-53.8c0.1-22.3-13.6-42.4-34.5-50.5l14.9-67c11.3,1.3,22.8,0.5,33.9-2.3l29.4,73.6
		c-25.2,15.5-33.1,48.5-17.6,73.7c15.5,25.2,48.5,33.1,73.7,17.6c25.2-15.5,33.1-48.5,17.6-73.7c-11.9-19.4-34.8-29.2-57.1-24.3
		l-29.1-72.7c6.7-3,13-6.8,18.8-11.2c0.4-0.3,0.8-0.5,1.1-0.8c43-33.1,51.1-94.8,18-137.8c-0.8-1.1-1.7-2.1-2.5-3.1l31.5-31.5
		c0.9,0.8,1.9,1.4,2.8,2.2c0.4,0.3,0.7,0.6,1.1,0.8c34.9,26.5,83.3,26.5,118.2,0c0.4-0.3,0.8-0.5,1.1-0.8c0.9-0.7,1.9-1.4,2.8-2.2
		l31.5,31.5c-34.8,41.6-29.3,103.6,12.4,138.4c1,0.9,2.1,1.7,3.1,2.5c0.4,0.3,0.7,0.6,1.1,0.8c5.8,4.4,12.2,8.2,18.8,11.2
		l-29.1,72.7c-29.1-6.4-58,12-64.4,41.2c-6.4,29.1,12,58,41.2,64.4c29.1,6.4,58-12,64.4-41.2c5-22.5-4.9-45.6-24.5-57.7l29.4-73.6
		c11.1,2.8,22.5,3.6,33.9,2.3l14.9,67c-27.6,10.7-41.3,41.8-30.6,69.5c10.7,27.6,41.8,41.3,69.5,30.6c27.6-10.7,41.3-41.8,30.6-69.5
		C538.8,456.1,518.9,442.5,496.8,442.5z M192,460.5c19.8,0,35.9,16.1,35.9,35.9c0,19.8-16.1,35.9-35.9,35.9
		c-19.8,0-35.9-16.1-35.9-35.9C156.1,476.5,172.2,460.5,192,460.5z M102.3,496.3c0,19.8-16.1,35.9-35.9,35.9
		c-19.8,0-35.9-16.1-35.9-35.9c0-19.8,16.1-35.9,35.9-35.9C86.3,460.5,102.3,476.5,102.3,496.3z M111.3,361.8
		c-15.8,0-31.3-4.2-44.4-12.9C68.5,330.7,84,317,102.3,318h17.9c18.3-1,33.9,12.7,35.5,30.9C142.6,357.7,127.1,361.9,111.3,361.8z
		 M84.4,263.2c0-14.9,12-26.9,26.9-26.9c14.9,0,26.9,12,26.9,26.9c0,14.9-12,26.9-26.9,26.9C96.5,290.1,84.4,278.1,84.4,263.2z
		 M192,281.2c0,19.9-7.4,39.1-20.8,53.9c-5.5-16.7-19.1-29.5-36.1-34c21-13.1,27.3-40.8,14.2-61.8c-13.1-21-40.8-27.3-61.8-14.2
		c-21,13.1-27.3,40.8-14.2,61.8c3.6,5.7,8.4,10.6,14.2,14.2c-17,4.4-30.6,17.2-36.1,34c-29.8-33.1-27.1-84.1,6-113.9
		c33.1-29.8,84.1-27.1,113.9,6C184.6,242,192,261.2,192,281.2z M281.6,191.5c-15.8,0-31.3-4.5-44.4-13.2
		c1.6-18.2,17.2-32.3,35.5-31.3h17.9c18.3-1,33.9,13,35.5,31.3C312.9,187,297.4,191.5,281.6,191.5z M254.7,92.9
		c0-14.9,12-26.9,26.9-26.9c14.9,0,26.9,12,26.9,26.9c0,14.9-12,26.9-26.9,26.9C266.8,119.8,254.7,107.8,254.7,92.9z M341.5,164.7
		c-5.5-16.7-19-29.5-36.1-34c21-13.1,27.3-40.8,14.2-61.8c-13.1-21-40.8-27.3-61.8-14.2c-21,13.1-27.3,40.8-14.2,61.8
		c3.6,5.7,8.4,10.6,14.2,14.2c-17,4.4-30.6,17.2-36.1,34c-29.9-33.1-27.2-84.1,5.8-113.9c33.1-29.9,84.1-27.2,113.9,5.8
		C369.2,87.3,369.2,134,341.5,164.7z M407.1,496.3c0,19.8-16,35.9-35.9,35.9c-19.8,0-35.9-16.1-35.9-35.9
		c0-19.8,16.1-35.9,35.9-35.9C391.1,460.5,407.1,476.5,407.1,496.3z M392.1,335c-29.9-33.1-27.2-84.1,5.8-113.9
		c33.1-29.9,84.1-27.2,113.9,5.8c27.7,30.7,27.7,77.4,0,108.1c-5.4-16.7-19-29.5-36.1-34c21-13.1,27.3-40.8,14.2-61.8
		c-13.1-21-40.8-27.3-61.8-14.2c-21,13.1-27.3,40.8-14.2,61.8c3.6,5.7,8.4,10.6,14.2,14.2C411.1,305.5,397.5,318.3,392.1,335z
		 M452,290.1c-14.9,0-26.9-12-26.9-26.9c0-14.9,12-26.9,26.9-26.9c14.9,0,26.9,12,26.9,26.9C478.8,278.1,466.8,290.1,452,290.1z
		 M452,361.8c-15.8,0-31.3-4.2-44.4-12.9c1.6-18.2,17.2-31.9,35.5-30.9h17.9c18.3-1,33.9,12.7,35.5,30.9
		C483.2,357.7,467.8,361.9,452,361.8z M496.8,532.2c-19.8,0-35.9-16.1-35.9-35.9c0-19.8,16.1-35.9,35.9-35.9
		c19.8,0,35.9,16.1,35.9,35.9C532.6,516.1,516.6,532.2,496.8,532.2z"/>
</g>
</svg>
