<?xml version="1.0" standalone="no"?>
<!DOCTYPE svg PUBLIC "-//W3C//DTD SVG 20010904//EN"
 "http://www.w3.org/TR/2001/REC-SVG-20010904/DTD/svg10.dtd">
<svg version="1.0" xmlns="http://www.w3.org/2000/svg"
 width="168.000000pt" height="169.000000pt" viewBox="0 0 168.000000 169.000000"
 preserveAspectRatio="xMidYMid meet">

<g transform="translate(0.000000,169.000000) scale(0.100000,-0.100000)"
fill="#000000" stroke="none">
<path d="M428 1388 c-45 -26 -72 -77 -63 -118 16 -71 87 -118 154 -100 101 27
121 151 35 219 -34 27 -79 26 -126 -1z"/>
<path d="M891 1374 c-12 -15 -21 -31 -21 -35 0 -5 -40 -9 -90 -9 l-90 0 0 -45
0 -45 273 0 c156 0 288 -5 309 -10 56 -16 60 -42 56 -327 -3 -237 -4 -243 -26
-265 -23 -23 -24 -23 -317 -22 l-295 0 0 -43 0 -43 130 0 c74 0 130 -4 130 -9
0 -6 -26 -45 -59 -88 -32 -43 -63 -88 -70 -100 -10 -20 -9 -23 8 -23 41 0 70
21 115 84 26 36 53 66 61 66 7 0 37 -32 66 -71 48 -65 79 -89 115 -89 26 0 14
28 -44 102 -32 40 -66 85 -76 100 l-17 26 165 4 c115 2 169 7 177 15 19 19 28
127 28 343 0 241 -12 398 -34 419 -12 13 -46 17 -165 19 l-150 3 -15 29 c-17
34 -32 40 -95 40 -41 0 -52 -4 -69 -26z"/>
<path d="M273 1113 c-15 -22 -19 -54 -22 -175 -4 -168 5 -198 58 -198 l29 0 4
-200 c3 -188 5 -201 25 -221 17 -17 28 -20 56 -15 19 4 40 13 47 21 16 19 34
19 50 0 18 -22 73 -19 96 6 18 20 19 43 22 350 l3 329 167 2 167 3 3 39 c2 22
1 50 -2 63 l-6 23 -193 0 -193 0 -29 -30 c-15 -16 -41 -34 -57 -39 -28 -10
-33 -7 -69 29 -36 36 -45 40 -89 40 -43 0 -52 -4 -67 -27z"/>
</g>
</svg>
